<svg id="Layer_1" enable-background="new 0 0 512 512" height="512" viewBox="0 0 512 512" width="512" xmlns="http://www.w3.org/2000/svg"><g><g fill="#58768c"><path d="m333.56 2.635c-2.687-3.152-7.42-3.53-10.573-.843-3.152 2.687-3.529 7.421-.843 10.573.213.249 21.077 25.361 7.706 64.548-1.337 3.92.757 8.183 4.677 9.52.803.274 1.619.404 2.423.404 3.12 0 6.033-1.962 7.098-5.08 16.095-47.176-9.395-77.84-10.488-79.122z"/><path d="m189.692 1.792c-3.153-2.687-7.887-2.31-10.573.843-1.093 1.282-26.583 31.946-10.487 79.123 1.064 3.118 3.977 5.081 7.098 5.08.803 0 1.62-.13 2.422-.404 3.92-1.337 6.014-5.6 4.676-9.52-13.236-38.794 6.839-63.507 7.729-64.575 2.662-3.152 2.278-7.867-.865-10.547z"/></g><path d="m472.27 454.77c-.67.4-8.77 5.07-24.23 9.87-10.14 3.15-23.46 6.35-39.92 8.43-8.42 1.06-17.67 1.83-27.74 2.15.43 3.71.82 7.43 1.18 11.15.33 3.37-1.64 6.54-4.8 7.74-1.93.731-48.03 17.89-120.76 17.89s-118.83-17.16-120.76-17.89c-3.16-1.2-5.13-4.37-4.8-7.74.36-3.72.75-7.44 1.18-11.15-10.07-.32-19.32-1.09-27.74-2.15-41.54-5.25-63.04-17.64-64.15-18.3-2.81-1.66-4.23-4.94-3.51-8.12 19.73-87.13 66.19-157.23 101.68-200.7 27.97-34.25 53.25-57.44 65.49-67.95-47.09-35.87-49.11-86.22-49.17-88.46-.06-2.03.7-4 2.12-5.45.88-.9 21.96-22.14 58.75-22.14 20.73 0 33.77 11.56 40.91 20.87 7.14-9.31 20.18-20.87 40.91-20.87 12.39 0 22.99 2.41 31.65 5.64 17.05 6.36 26.52 15.9 27.1 16.5 1.42 1.45 2.18 3.42 2.12 5.45-.06 2.24-2.08 52.59-49.17 88.46 2.15 1.85 4.71 4.09 7.61 6.71 0 0 .01.01.02.03 13.6 12.29 34.82 33 57.86 61.21 35.49 43.47 81.95 113.57 101.68 200.7.72 3.181-.7 6.46-3.51 8.12z" fill="#ff5f85"/><path d="m357.78 89.54c-.06 2.24-2.08 52.59-49.17 88.46l-22.31-.58c36.07-39.16 41.63-88.89 42.26-109.83 17.05 6.36 26.52 15.9 27.1 16.5 1.42 1.45 2.18 3.42 2.12 5.45z" fill="#b2527e"/><path d="m321.54 170.042c-64.791-4.681-130.425-.048-131.081 0-4.131.298-7.238 3.889-6.94 8.021.299 4.131 3.892 7.237 8.021 6.94.339-.024 18.262-1.288 44.416-1.821-13.037 15.013-27.676 44.024-19.938 95.499.616 4.096 4.437 6.923 8.531 6.302 4.096-.616 6.917-4.436 6.302-8.531-4.562-30.346-1.039-56.18 10.188-74.711 5.388-8.893 11.39-14.167 14.987-16.8 9.268 6.725 34.234 30.893 25.122 91.511-.615 4.096 2.206 7.916 6.302 8.531.378.057.754.084 1.125.084 3.648 0 6.848-2.668 7.407-6.386 7.753-51.574-6.959-80.598-20.014-95.586 14.309.245 29.426.82 44.492 1.909.184.013.366.02.548.02 3.896 0 7.188-3.013 7.473-6.96.299-4.132-2.809-7.724-6.941-8.022z" fill="#ffe878"/><path d="m408.12 473.071c-8.42 1.06-17.67 1.83-27.74 2.15-6.15-58.78-24.78-118.24-24.78-118.24 33.74 40.009 47.89 93.999 52.52 116.09z" fill="#b2527e"/><path d="m156.4 356.98s-18.63 59.46-24.78 118.24c-10.07-.32-19.32-1.09-27.74-2.15 4.63-22.09 18.78-76.08 52.52-116.09z" fill="#b2527e"/><g fill="#ffa1a8"><circle cx="256" cy="452.479" r="7.5"/><circle cx="201.49" cy="449.479" r="7.5"/><circle cx="310.49" cy="449.479" r="7.5"/><circle cx="100" cy="420.908" r="7.5"/><circle cx="412" cy="420.908" r="7.5"/></g><path d="m472.27 454.77c-.67.4-8.77 5.07-24.23 9.87-23.68-133-130.11-277.61-131.8-279.9 13.6 12.29 34.82 33 57.86 61.21 35.49 43.47 81.95 113.57 101.68 200.7.72 3.181-.7 6.46-3.51 8.12z" fill="#b2527e"/></g></svg>